<svg width="32" height="32" viewBox="0 0 32 32" fill="none" xmlns="http://www.w3.org/2000/svg">
<g clip-path="url(#clip0_137_429)">
<path d="M28.85 0H3.15C1.4103 0 0 1.4103 0 3.15V28.85C0 30.5897 1.4103 32 3.15 32H28.85C30.5897 32 32 30.5897 32 28.85V3.15C32 1.4103 30.5897 0 28.85 0Z" fill="#1D1D1B"/>
<path d="M28.03 5.07003C27.99 5.34003 27.95 5.61003 27.9 5.87003C27.9 5.90003 27.89 5.93003 27.88 5.95003C27.84 6.14003 27.8 6.32003 27.75 6.51003C27.75 6.51003 27.73 6.58003 27.72 6.62003C27.59 7.10003 27.43 7.57003 27.23 8.02003C27.01 8.53003 26.76 9.02003 26.48 9.49003C26.48 9.51003 26.46 9.52003 26.45 9.54003C26.26 9.85003 26.05 10.15 25.83 10.44C25.83 10.44 25.78 10.51 25.75 10.55C25.53 10.84 25.29 11.11 25.04 11.38C25.04 11.38 24.98 11.44 24.95 11.47C24.87 11.55 24.8 11.63 24.72 11.7C24.38 12.03 24.01 12.34 23.63 12.63C23.61 12.64 23.6 12.65 23.58 12.66C23.4 12.8 23.21 12.93 23.01 13.05C23 13.05 22.98 13.07 22.97 13.08C22.86 13.15 22.75 13.22 22.63 13.29C22.61 13.3 22.6 13.31 22.58 13.32C22.04 13.64 21.47 13.91 20.87 14.15C20.67 14.23 20.47 14.3 20.27 14.37C20.25 14.37 20.23 14.38 20.21 14.39C19.97 14.47 19.73 14.54 19.48 14.61C19.46 14.61 19.43 14.62 19.41 14.63C19.31 14.65 19.22 14.68 19.12 14.7C19.1 14.7 19.08 14.7 19.06 14.71C18.88 14.75 18.7 14.79 18.52 14.82C18.5 14.82 18.48 14.82 18.47 14.82C18.12 14.88 17.77 14.93 17.41 14.96C17.39 14.96 17.37 14.96 17.35 14.96C17.05 14.99 16.75 15.01 16.44 15.01C16.42 15.01 16.4 15.01 16.38 15.01C16.25 15.01 16.12 15.01 15.99 15.01H15.98C15.98 15.01 15.94 15.01 15.93 15.01C15.46 15.01 15.01 14.99 14.56 14.94C14.54 14.94 14.52 14.94 14.5 14.94C14.24 14.92 13.99 14.88 13.74 14.84C13.74 14.84 13.72 14.84 13.7 14.84H13.68C13.67 14.84 13.66 14.84 13.65 14.84C13.58 14.83 13.51 14.82 13.44 14.8C13.42 14.8 13.4 14.8 13.39 14.79C13.08 14.73 12.78 14.67 12.49 14.59C12.47 14.59 12.44 14.58 12.42 14.57C12.17 14.51 11.93 14.43 11.69 14.35C11.67 14.35 11.65 14.34 11.63 14.33C11.45 14.27 11.28 14.2 11.11 14.14C10.85 14.04 10.59 13.92 10.34 13.8C10.32 13.8 10.3 13.78 10.29 13.77C10.08 13.67 9.88 13.56 9.68 13.45C9.66 13.45 9.64 13.43 9.62 13.42C9.4 13.3 9.18 13.16 8.97 13.03C8.95 13.03 8.94 13.01 8.92 13C8.72 12.87 8.53 12.73 8.35 12.59C8.33 12.58 8.32 12.57 8.3 12.55C8.14 12.43 7.98 12.3 7.82 12.16C7.81 12.15 7.79 12.14 7.78 12.12C7.61 11.97 7.45 11.82 7.28 11.66C6.85 11.24 6.46 10.79 6.1 10.31C6.07 10.27 6.04 10.23 6.02 10.2C5.53 9.52003 5.12 8.79003 4.78 7.99003C4.74 7.91003 4.71 7.83003 4.68 7.74003C4.66 7.69003 4.64 7.65003 4.63 7.60003C4.45 7.12003 4.3 6.63003 4.18 6.13003C4.18 6.13003 4.16 6.06003 4.16 6.03003C4.14 5.94003 4.12 5.86003 4.11 5.77003C4.11 5.77003 4.1 5.71003 4.09 5.68003C4.07 5.55003 4.04 5.41003 4.02 5.28003C4.02 5.26003 4.02 5.24003 4.02 5.21003C4.02 5.15003 4 5.09003 4 5.03003H10.06C10.07 5.08003 10.09 5.13003 10.1 5.18003C10.12 5.24003 10.14 5.30003 10.16 5.36003C10.2 5.48003 10.25 5.60003 10.3 5.72003C10.32 5.76003 10.34 5.80003 10.35 5.84003C10.57 6.32003 10.83 6.77003 11.15 7.17003C11.15 7.17003 11.21 7.25003 11.25 7.29003C11.39 7.46003 11.53 7.61003 11.69 7.76003C11.88 7.94003 12.08 8.11003 12.28 8.26003C12.29 8.27003 12.31 8.28003 12.32 8.29003C12.72 8.58003 13.17 8.83003 13.65 9.02003C14.01 9.17003 14.38 9.28003 14.76 9.35003C14.78 9.35003 14.8 9.35003 14.81 9.36003C15.2 9.43003 15.6 9.47003 16.01 9.47003C16.4 9.47003 16.77 9.44003 17.14 9.37003C17.16 9.37003 17.18 9.37003 17.19 9.37003C17.6 9.30003 17.99 9.18003 18.38 9.03003C18.88 8.83003 19.35 8.57003 19.77 8.26003C19.77 8.26003 19.83 8.21003 19.87 8.19003C20.04 8.06003 20.2 7.92003 20.36 7.77003C20.59 7.55003 20.8 7.32003 20.99 7.07003C21.02 7.03003 21.05 7.00003 21.07 6.96003C21.32 6.62003 21.53 6.25003 21.71 5.85003C21.75 5.75003 21.8 5.65003 21.84 5.55003C21.85 5.52003 21.86 5.49003 21.87 5.46003C21.92 5.32003 21.96 5.18003 22 5.04003H28.06L28.03 5.07003Z" fill="#04E4AC"/>
<path d="M28.03 26.93H21.97C21.95 26.86 21.93 26.79 21.91 26.72C21.91 26.7 21.89 26.67 21.89 26.65C21.87 26.59 21.85 26.54 21.83 26.48C21.82 26.45 21.81 26.42 21.8 26.39C21.76 26.3 21.73 26.21 21.69 26.12C21.52 25.74 21.32 25.38 21.08 25.05C21.05 25.01 21.02 24.97 21 24.93C20.91 24.81 20.82 24.7 20.72 24.58C20.69 24.55 20.66 24.51 20.63 24.48C20.54 24.38 20.45 24.29 20.35 24.19C20.13 23.98 19.9 23.79 19.65 23.62C19.63 23.61 19.62 23.6 19.6 23.59C19.22 23.33 18.81 23.11 18.37 22.93C18.1 22.82 17.81 22.73 17.53 22.66C17.51 22.66 17.49 22.66 17.48 22.65C17.38 22.63 17.27 22.6 17.17 22.59C17.15 22.59 17.13 22.59 17.12 22.59C16.76 22.53 16.39 22.5 16.01 22.5H16C16 22.5 15.96 22.5 15.95 22.5C15.66 22.5 15.37 22.52 15.09 22.56C15.06 22.56 15.03 22.56 15 22.57C14.82 22.6 14.65 22.63 14.47 22.68C14.45 22.68 14.43 22.68 14.42 22.69C14.16 22.76 13.9 22.84 13.65 22.94C12.9 23.24 12.25 23.66 11.69 24.2C11.54 24.35 11.39 24.51 11.25 24.67C11.22 24.71 11.18 24.75 11.15 24.79C11.05 24.91 10.97 25.03 10.88 25.16C10.85 25.2 10.82 25.25 10.79 25.3C10.62 25.56 10.48 25.83 10.35 26.12C10.33 26.16 10.31 26.2 10.3 26.24C10.26 26.35 10.21 26.45 10.18 26.56C10.16 26.62 10.14 26.68 10.12 26.73C10.12 26.74 10.12 26.76 10.11 26.77C10.11 26.77 10.09 26.82 10.09 26.85C10.09 26.88 10.07 26.9 10.07 26.93H3.96997C4.00997 26.58 4.07997 26.24 4.14997 25.9C4.14997 25.87 4.16997 25.83 4.16997 25.8C4.17997 25.75 4.18997 25.71 4.19997 25.66C4.19997 25.62 4.21997 25.59 4.22997 25.55C4.32997 25.15 4.45997 24.75 4.60997 24.37C4.62997 24.32 4.64997 24.28 4.65997 24.23C4.68997 24.15 4.72997 24.06 4.75997 23.98C5.08997 23.2 5.48997 22.48 5.96997 21.82C5.99997 21.78 6.02997 21.74 6.05997 21.7C6.32997 21.33 6.61997 20.97 6.93997 20.63C6.94997 20.62 6.95997 20.6 6.97997 20.59C7.06997 20.49 7.16997 20.4 7.25997 20.3C7.42997 20.14 7.59997 19.98 7.77997 19.83C7.78997 19.82 7.80997 19.8 7.81997 19.79C7.96997 19.66 8.12997 19.53 8.28997 19.41C8.30997 19.4 8.31997 19.39 8.33997 19.37C8.92997 18.93 9.56997 18.54 10.26 18.2C10.28 18.2 10.3 18.18 10.31 18.17C10.56 18.05 10.82 17.94 11.08 17.83C11.43 17.69 11.78 17.57 12.15 17.46C12.17 17.46 12.19 17.45 12.21 17.44C12.26 17.43 12.31 17.41 12.36 17.4C12.38 17.4 12.41 17.39 12.43 17.38C12.49 17.36 12.55 17.35 12.61 17.33C12.63 17.33 12.64 17.33 12.66 17.32C12.69 17.32 12.72 17.3 12.75 17.3C12.77 17.3 12.79 17.3 12.81 17.29C13.09 17.22 13.38 17.17 13.67 17.12C13.69 17.12 13.71 17.12 13.73 17.12H13.75C13.77 17.12 13.79 17.12 13.81 17.12C14 17.09 14.19 17.07 14.39 17.05C14.41 17.05 14.43 17.05 14.45 17.05C14.93 17 15.42 16.97 15.92 16.97C15.94 16.97 15.96 16.97 15.97 16.97H15.98C16.7 16.97 17.4 17.02 18.07 17.12C18.09 17.12 18.11 17.12 18.13 17.12C18.14 17.12 18.15 17.12 18.16 17.12C18.18 17.12 18.2 17.12 18.22 17.12C18.3 17.13 18.37 17.14 18.44 17.16C18.46 17.16 18.48 17.16 18.49 17.16C18.69 17.19 18.88 17.23 19.07 17.28C19.09 17.28 19.11 17.28 19.13 17.29C19.16 17.29 19.19 17.31 19.23 17.31C19.25 17.31 19.26 17.31 19.28 17.32C19.52 17.38 19.75 17.44 19.99 17.51C20.01 17.51 20.03 17.52 20.05 17.53C20.33 17.62 20.6 17.71 20.87 17.82C21.47 18.06 22.03 18.33 22.56 18.64C22.58 18.64 22.59 18.66 22.61 18.67C22.72 18.73 22.83 18.8 22.94 18.87C22.96 18.87 22.97 18.89 22.98 18.9C23.18 19.03 23.37 19.16 23.56 19.3C23.58 19.31 23.59 19.32 23.61 19.33C24 19.62 24.37 19.94 24.72 20.28C24.8 20.35 24.87 20.43 24.94 20.5C24.95 20.51 24.97 20.53 24.98 20.54C24.98 20.54 24.98 20.54 24.99 20.55C25.02 20.58 25.05 20.61 25.08 20.64C25.33 20.9 25.56 21.18 25.78 21.46L25.86 21.57C26.4 22.29 26.86 23.08 27.22 23.93C27.22 23.93 27.22 23.93 27.22 23.94C27.24 23.98 27.25 24.02 27.27 24.05C27.44 24.46 27.58 24.87 27.7 25.3C27.71 25.34 27.72 25.37 27.73 25.41C27.86 25.89 27.95 26.39 28.02 26.89L28.03 26.93Z" fill="white"/>
<path d="M4.22989 25.54C4.22989 25.54 4.20989 25.61 4.19989 25.65L4.42989 26.59L4.15989 25.79C4.15989 25.79 4.13989 25.86 4.13989 25.89L4.47989 26.92H4.55989L4.20989 25.54H4.22989Z" fill="black"/>
<path d="M19.37 18.23L19.35 18.17L19.31 18.21L19.33 18.27L20.45 22.73L20.49 22.69L19.37 18.23ZM18.15 17.15V17.11C18.15 17.11 18.1 17.11 18.08 17.11L18.12 17.23L18.14 17.3L18.17 17.23L18.15 17.16V17.15ZM12.75 17.32L12.71 17.48L12.69 17.58L12.72 17.68L12.74 17.58L12.81 17.31C12.81 17.31 12.77 17.31 12.75 17.32ZM19.37 18.23L19.35 18.17L19.31 18.21L19.33 18.27L20.45 22.73L20.49 22.69L19.37 18.23ZM12.75 17.32L12.71 17.48L12.69 17.58L12.72 17.68L12.74 17.58L12.81 17.31C12.81 17.31 12.77 17.31 12.75 17.32ZM12.75 17.32L12.71 17.48L12.69 17.58L12.61 17.89L12.59 17.95L10.76 25.29C10.76 25.29 10.82 25.2 10.85 25.15L12.64 18L12.66 17.94L12.73 17.67L12.75 17.57L12.82 17.3C12.82 17.3 12.78 17.3 12.76 17.31L12.75 17.32ZM20.5 22.76L20.48 22.7L19.36 18.24L19.34 18.18L19.19 17.59L19.17 17.49L19.13 17.31C19.13 17.31 19.09 17.31 19.07 17.3L19.14 17.59L19.16 17.69L19.3 18.23L19.32 18.29L20.44 22.75L20.46 22.81L20.99 24.94C20.99 24.94 21.05 25.02 21.07 25.06L20.5 22.77V22.76ZM19.37 18.23L19.35 18.17L19.31 18.21L19.33 18.27L20.45 22.73L20.49 22.69L19.37 18.23ZM13.75 17.12V17.15L13.72 17.22L13.25 18.6L13.23 18.66L13.17 18.84L13.14 18.92L11.12 24.78C11.12 24.78 11.18 24.7 11.22 24.66L13.17 19L13.2 18.92L13.28 18.7L13.3 18.64L13.77 17.29L13.79 17.22L13.83 17.11C13.83 17.11 13.79 17.11 13.77 17.11L13.75 17.12ZM19.37 18.23L19.35 18.17L19.31 18.21L19.33 18.27L20.45 22.73L20.49 22.69L19.37 18.23ZM20.19 23.07L20.17 23.01L18.76 18.92L18.74 18.86V18.84L18.72 18.81L18.36 17.75L18.33 17.66L18.18 17.23L18.16 17.16V17.12C18.16 17.12 18.11 17.12 18.09 17.12L18.13 17.24L18.15 17.31L18.31 17.77L18.34 17.86L18.69 18.86L18.71 18.92V18.94L18.75 19.02L20.14 23.07L20.16 23.13L20.63 24.5C20.63 24.5 20.69 24.57 20.72 24.6L20.2 23.09L20.19 23.07ZM19.37 18.23L19.35 18.17L19.31 18.21L19.33 18.27L20.45 22.73L20.49 22.69L19.37 18.23ZM12.75 17.32L12.71 17.48L12.69 17.58L12.72 17.68L12.74 17.58L12.81 17.31C12.81 17.31 12.77 17.31 12.75 17.32ZM19.37 18.23L19.35 18.17L19.31 18.21L19.33 18.27L20.45 22.73L20.49 22.69L19.37 18.23ZM18.15 17.15V17.11C18.15 17.11 18.1 17.11 18.08 17.11L18.12 17.23L18.14 17.3L18.17 17.23L18.15 17.16V17.15ZM18.36 17.75L18.33 17.66L18.31 17.76L18.34 17.85L18.69 18.85L18.73 18.81L18.37 17.75H18.36Z" fill="black"/>
<path d="M15.9199 16.95V22.47C15.9199 22.47 15.9599 22.47 15.9699 22.47V16.95C15.9699 16.95 15.9299 16.95 15.9199 16.95ZM4.60986 24.36V26.92H4.65986V24.22C4.65986 24.22 4.61986 24.31 4.60986 24.36ZM5.96986 21.81L4.68986 26.92H4.74986L6.05986 21.69C6.05986 21.69 5.99986 21.77 5.96986 21.81ZM8.33986 19.37C8.33986 19.37 8.30986 19.39 8.28986 19.41L10.0899 26.6L7.81986 19.79C7.81986 19.79 7.78986 19.81 7.77986 19.83L10.0799 26.74C10.0999 26.68 10.1199 26.62 10.1399 26.57L8.33986 19.38V19.37ZM13.1899 18.92L13.1599 18.84L13.0299 18.44L12.9899 18.31L12.7399 17.57L12.7099 17.47L12.6599 17.33C12.6599 17.33 12.6199 17.33 12.6099 17.34L12.6899 17.57L12.7199 17.67L12.8999 18.21L12.9399 18.34L13.1299 18.92L13.1599 19L14.3799 22.67C14.3799 22.67 14.4199 22.67 14.4299 22.66L13.1799 18.92H13.1899Z" fill="black"/>
<path d="M15.97 21.6001H15.95L15.93 21.6201L15.85 21.4501L15.82 21.3901L13.77 17.2801L13.74 17.2101L13.7 17.1201C13.72 17.1201 13.74 17.1201 13.76 17.1201V17.1501L13.81 17.2201L15.83 21.2701L15.88 21.3801L15.94 21.5101L15.97 21.5601L15.99 21.6101L15.97 21.6001Z" fill="black"/>
<path d="M12.9 18.21L12.65 17.94L12.61 17.89L12.34 17.59L12.3 17.55L12.22 17.46C12.22 17.46 12.18 17.47 12.16 17.48L12.27 17.6L12.31 17.64L12.59 17.95L12.63 18L12.94 18.34L12.9 18.21ZM10.27 18.21V26.24C10.27 26.24 10.31 26.16 10.32 26.12V18.19C10.32 18.19 10.28 18.21 10.27 18.22V18.21ZM20 17.54L15.97 21.57V21.55L15.93 21.45L15.9 21.36L14.46 17.03C14.46 17.03 14.42 17.03 14.4 17.03L15.81 21.26L15.85 21.38L15.89 21.5L15.85 21.45L15.81 21.4L13.3 18.64L13.26 18.59L13 18.31L12.91 18.21L12.66 17.94L12.62 17.89L12.35 17.59L12.31 17.55L12.23 17.46C12.23 17.46 12.19 17.47 12.17 17.48L12.28 17.6L12.32 17.64L12.6 17.95L12.64 18L12.95 18.34L13.04 18.44L13.24 18.66L13.28 18.71L15.77 21.45L15.93 21.62L14.99 22.56C14.99 22.56 15.05 22.56 15.08 22.55L15.81 21.82L15.95 21.68L15.98 21.65L16.01 21.68L16.05 21.72L16.01 21.61L17.89 19.73L18.73 18.89L18.75 18.87L18.77 18.85L18.83 18.79L19.36 18.26L19.4 18.22L20.08 17.54C20.08 17.54 20.04 17.53 20.02 17.52L20 17.54ZM13 18.32L12.91 18.22L12.66 17.95L12.62 17.9L12.35 17.6L12.31 17.56L12.23 17.47C12.23 17.47 12.19 17.48 12.17 17.49L12.28 17.61L12.32 17.65L12.6 17.96L12.64 18.01L12.95 18.35L13.04 18.45L13 18.32Z" fill="black"/>
<path d="M18.4499 17.16L18.3299 17.65L18.3099 17.75L17.8199 19.71L17.7899 19.81L17.0999 22.56C17.0999 22.56 17.1399 22.56 17.1499 22.56L17.8599 19.72L17.8799 19.62L18.3299 17.82L18.3499 17.72L18.4899 17.14C18.4899 17.14 18.4599 17.14 18.4399 17.14L18.4499 17.16ZM18.1699 17.11L18.1499 17.15L18.1199 17.22L16.0399 21.38L15.9799 21.51L15.9599 21.55L15.9299 21.61H15.9499L15.9699 21.63L16.0799 21.4L18.1299 17.29L18.1599 17.22L18.2099 17.12C18.2099 17.12 18.1699 17.12 18.1499 17.12L18.1699 17.11ZM19.2399 17.32L19.1899 17.47L19.1599 17.57L18.7599 18.77L18.7399 18.84L18.7199 18.89V18.93L17.4699 22.65C17.4899 22.65 17.5099 22.65 17.5199 22.66L18.7399 19.01L18.7699 18.93L18.8099 18.81L18.8499 18.7L19.1899 17.68L19.2199 17.58L19.2999 17.34C19.2999 17.34 19.2699 17.34 19.2499 17.33L19.2399 17.32Z" fill="black"/>
<path d="M6.97994 20.59L10.0699 26.77C10.0699 26.77 10.0499 26.82 10.0499 26.85L6.93994 20.63C6.93994 20.63 6.95994 20.6 6.97994 20.59Z" fill="black"/>
<path d="M12.36 17.42C12.36 17.42 12.41 17.41 12.43 17.4L12.33 17.59L12.3 17.64L10.31 21.62L10.26 21.6L10.31 21.5L10.37 21.37L12.26 17.59L12.29 17.54L12.35 17.41L12.36 17.42Z" fill="black"/>
<path d="M22.9401 18.89L21.7501 21.27L22.6101 18.69C22.6101 18.69 22.5801 18.67 22.5601 18.66L21.6601 21.36L21.5801 21.6L20.4901 22.69L20.4501 22.73L20.1701 23.01L19.5901 23.59C19.5901 23.59 19.6201 23.61 19.6401 23.62L20.1901 23.07L20.4601 22.8L20.5001 22.76L21.4401 21.82L21.6201 21.64L21.7401 21.4L22.9801 18.92C22.9801 18.92 22.9501 18.9 22.9401 18.89ZM23.5701 19.32L21.8001 26.38C21.8001 26.38 21.8201 26.44 21.8301 26.47L23.6101 19.35C23.6101 19.35 23.5801 19.33 23.5601 19.32H23.5701ZM24.9501 20.52L21.8901 26.64C21.8901 26.64 21.9101 26.69 21.9101 26.71L24.9901 20.56C24.9901 20.56 24.9601 20.53 24.9501 20.52ZM25.8701 21.6L25.7901 21.49L27.0701 26.6L25.0901 20.67C25.0901 20.67 25.0301 20.61 25.0001 20.58L27.1201 26.93H27.2001L25.8701 21.6ZM27.2401 23.98C27.2401 23.98 27.2401 23.98 27.2401 23.97V26.93H27.2901V24.09C27.2901 24.09 27.2601 24.01 27.2401 23.98ZM27.7201 25.34L27.3201 26.93H27.3801L27.7501 25.45C27.7501 25.45 27.7301 25.38 27.7201 25.34Z" fill="black"/>
<path d="M10.29 21.35C10.15 21.35 10.03 21.47 10.03 21.61C10.03 21.75 10.15 21.87 10.29 21.87C10.43 21.87 10.55 21.75 10.55 21.61C10.55 21.47 10.43 21.35 10.29 21.35Z" fill="black"/>
<path d="M15.9499 21.35C15.8099 21.35 15.6899 21.47 15.6899 21.61C15.6899 21.75 15.8099 21.87 15.9499 21.87C16.0899 21.87 16.2099 21.75 16.2099 21.61C16.2099 21.47 16.0899 21.35 15.9499 21.35Z" fill="black"/>
<path d="M21.6001 21.87C21.7437 21.87 21.8601 21.7536 21.8601 21.61C21.8601 21.4664 21.7437 21.35 21.6001 21.35C21.4565 21.35 21.3401 21.4664 21.3401 21.61C21.3401 21.7536 21.4565 21.87 21.6001 21.87Z" fill="black"/>
</g>
<defs>
<clipPath id="clip0_137_429">
<rect width="32" height="32" fill="white"/>
</clipPath>
</defs>
</svg>
